<?xml version="1.0" encoding="UTF-8"?>
<svg id="Layer_2" data-name="Layer 2" xmlns="http://www.w3.org/2000/svg" viewBox="0 0 3279.53 740.39">
  <defs>
    <style>
      .cls-1 {
        stroke-width: 0px;
      }
    </style>
  </defs>
  <g id="Layer_1-2" data-name="Layer 1">
    <g>
      <path class="cls-1" d="M68.72,0L4.94,371.01c-13.18,76.69.04,128.53,39.68,155.53,39.64,27,85.38,40.5,137.23,40.5,27,0,54.75-4.32,83.24-12.95,29.75-9.72,54.49-24.84,74.22-45.36,39.64-42.13,65.22-96.67,76.73-163.64,11.52-66.96,4.7-121.51-20.45-163.63-25.16-42.12-63.13-63.18-113.89-63.18-28.08,0-52.77,5.41-74.07,16.21-24.91,12.96-45.08,29.69-60.48,50.21l22.29-129.6c2.6-15.12-.57-28.08-9.51-38.88C150.97,5.41,138.93,0,123.81,0h-55.09ZM471.29,127.99l-42.11,252.74c-12.41,74.53-2.28,123.66,30.38,147.42,33.72,23.77,72.89,36.73,117.53,38.88,46.04,0,90.41-11.87,133.09-35.63,42.67-23.76,70.38-73.99,83.15-150.68l42.11-252.74h-54.93c-15.7,0-29.68,5.41-41.94,16.21-11.22,10.8-18.08,23.76-20.6,38.88l-36.71,220.34c-4.32,25.92-15.32,44.82-32.99,56.7-16.63,11.88-34.36,17.82-53.2,17.82s-34.6-5.93-47.27-17.82c-12.67-11.88-16.84-30.78-12.52-56.7l45.88-275.43h-109.87ZM852.42,127.99l68.18,435.6c3.21,23.01-2.41,39.46-16.85,49.32-13.58,10.96-35.58,20.32-56.66,20.32h-30.05l-17.16,87.3h11.07c5.07,1.09,9.09,2.19,12.05,3.29h22.16c43.22,0,80.97-7.36,102.33-20.51,21.75-15.34,42.22-41.1,61.42-77.26l251.52-498.06h-75.91c-27.41,0-46.68,13.15-57.77,39.45l-123.15,269.57-29.42-309.02h-121.77ZM235.81,215.49c28.08,0,48.27,11.34,60.58,34.01,12.49,21.6,15.38,51.84,8.69,90.72-7.43,43.2-21.19,76.16-41.29,98.84-20.1,22.68-45.27,34.01-75.52,34.01s-49.89-11.33-62.19-34.01c-11.59-20.52-13.5-53.47-5.7-98.84,6.68-38.88,20.08-69.65,40.18-92.33,19.91-21.6,45-32.4,75.24-32.4h0Z"/>
      <path class="cls-1" d="M2835.43,0l-31.75,184.7c-9.43-20.52-23.84-37.25-43.21-50.21-18.66-10.8-41.5-16.21-68.5-16.21-50.76,0-95.96,21.06-135.61,63.18-38.38,41.04-63.42,95.59-75.12,163.63-11.88,69.13-5.6,123.67,18.84,163.64,12.68,20.52,31.68,35.64,57,45.36,25.52,8.63,52.32,12.95,80.41,12.95,51.84,0,102.23-13.49,151.15-40.5,48.92-27,79.98-78.84,93.16-155.53l54.32-315.92c2.41-14.04-.86-26.47-9.81-37.27-8.75-11.88-20.69-17.83-35.81-17.83h-55.09ZM1465.64,118.27c-68.04,0-121.35,21.06-159.91,63.18-37.3,41.04-61.7,95.05-73.21,162.02-9.84,57.24-6.49,103.68,10.06,139.32,17.82,34.57,41.81,58.33,71.98,71.29,30.17,12.96,62.12,15.66,95.82,8.1,34.78-7.56,64.49-26.46,89.13-56.7l-4.73,27.54c-8.1,34.57-21.2,60.48-39.29,77.77-17.01,17.28-34.98,27.54-53.89,30.78-18.03,4.32-35.47,2.16-52.35-6.48-15.98-7.57-27-18.9-33.04-34.02h-118.26c7.79,92.89,61.37,139.33,160.73,139.33,51.84,0,102.33-14.05,151.44-42.13,48.92-27,79.89-78.3,92.89-153.9l39.28-228.44c13-75.6-.24-127.45-39.69-155.52-39.46-28.08-85.11-42.12-136.95-42.12h0ZM3118.05,118.27c-51.84,0-96.09,12.43-132.77,37.27-35.96,27-57.48,61.02-64.54,102.06-5.57,32.4.78,58.32,19.03,77.76,16.1,19.44,51.56,36.18,106.39,50.23,9.16,3.24,23.19,6.48,42.08,9.72,43.69,9.72,63.86,24.31,60.52,43.75-2.23,12.96-10.47,23.22-24.73,30.78-15.34,7.56-32.72,11.34-52.16,11.34-27,0-47.68-5.41-62.03-16.21-13.26-10.8-18.57-27-15.94-48.6h-110.16l-.83,4.87c-8.18,47.53,1.26,83.7,28.32,108.54,25.97,24.84,69.74,37.25,131.31,37.25,64.8,0,115.44-11.88,151.92-35.64,39.02-25.92,62.62-62.63,70.79-110.16,5.57-32.4-.23-58.33-17.41-77.77-18.45-18.36-54.01-34.56-106.68-48.6-4.32,0-9.08-.54-14.29-1.61-4.13-1.08-9.26-2.71-15.36-4.86-54.12-11.88-79.7-26.47-76.73-43.75,2.23-12.96,8.76-22.67,19.59-29.15,11.92-6.48,28.68-9.73,50.28-9.73,22.68,0,39.67,4.86,50.96,14.58,3.58,4.32,7.15,8.65,10.73,12.97,7.65,18.36,21.73,27.54,42.26,27.54h69.66c5.27-43.21-5.43-78.3-32.11-105.3-29.21-24.84-71.9-37.27-128.06-37.27h0ZM1901.37,118.32c-15.34-.3-31.51.76-48.54,3.19-45.22,5.4-84.65,24.3-118.29,56.7-20.62,19.44-37.76,43.75-51.42,72.92-12.57,29.16-21.37,58.32-26.38,87.48-6.12,35.64-7.21,70.21-3.25,103.69,4.15,32.4,15.89,58.32,35.23,77.76,18.26,19.44,44.57,32.94,78.91,40.5,35.23,8.64,71.51,8.11,108.82-1.61,41.45-8.64,78.2-30.78,110.26-66.43,14.85-17.28,28.19-38.35,40.02-63.19,11.83-24.84,20.72-54.54,26.66-89.11,8.17-47.52,6.14-89.09-6.09-124.73-12.57-39.97-37.99-68.06-76.25-84.26-20.88-8.1-44.1-12.4-69.67-12.91h0ZM2314.82,118.32c-15.34-.3-31.51.76-48.54,3.19-45.21,5.4-84.64,24.3-118.29,56.7-20.63,19.44-37.76,43.75-51.41,72.92-12.58,29.16-21.37,58.32-26.38,87.48-6.13,35.64-7.22,70.21-3.25,103.69,4.15,32.4,15.9,58.32,35.23,77.76,18.26,19.44,44.56,32.94,78.89,40.5,35.24,8.64,71.52,8.11,108.83-1.61,41.45-8.64,78.2-30.78,110.25-66.43,14.85-17.28,28.2-38.35,40.02-63.19,11.83-24.84,20.72-54.54,26.66-89.11,8.17-47.52,6.14-89.09-6.09-124.73-12.57-39.97-37.99-68.06-76.24-84.26-20.88-8.1-44.11-12.4-69.67-12.91h0ZM1879.22,213.05c8.1,0,15.96,1.35,23.6,4.05,15.27,5.4,27.19,17.83,35.73,37.26,9.62,19.44,11.08,48.6,4.39,87.49-8.51,43.2-20.91,74.52-37.22,93.96-16.3,19.44-33.55,31.87-51.76,37.27-16.94,4.32-33.05,3.78-48.33-1.63-15.09-6.48-25.13-14.03-30.13-22.67-12.86-19.44-16.19-53.46-9.99-102.06,6.38-49.68,23.06-86.95,50.01-111.79,8.86-7.56,21.76-13.5,38.7-17.82,8.57-2.7,16.89-4.05,25-4.05h0ZM2292.66,213.05c8.1,0,15.96,1.35,23.6,4.05,15.27,5.4,27.18,17.83,35.71,37.26,9.62,19.44,11.1,48.6,4.41,87.49-8.5,43.2-20.92,74.52-37.22,93.96-16.31,19.44-33.56,31.87-51.77,37.27-16.94,4.32-33.06,3.78-48.34-1.63-15.09-6.48-25.12-14.03-30.11-22.67-12.86-19.44-16.19-53.46-9.99-102.06,6.38-49.68,23.05-86.95,50-111.79,8.86-7.56,21.76-13.5,38.7-17.82,8.57-2.7,16.9-4.05,25-4.05h0ZM1458.94,213.86c27,0,45.84,9.72,56.54,29.17,10.7,19.44,15.53,41.58,14.49,66.42.05,24.84-4.31,50.23-13.08,76.15-8.59,24.84-18.77,43.2-30.54,55.08-25.35,28.08-58.97,38.34-100.87,30.78-41.72-8.63-56.17-50.21-43.36-124.73,5.94-34.57,17.71-65.34,35.32-92.35,17.6-27,44.77-40.51,81.5-40.51h0ZM2704.42,215.49c29.17,0,50.53,10.8,64.1,32.4,12.31,22.68,15.11,53.45,8.42,92.33-7.43,43.21-20.65,76.16-39.67,98.84-20.1,22.68-44.73,34.02-73.89,34.02s-51.51-11.34-63.82-34.02c-12.3-22.68-14.74-55.63-7.31-98.84,6.68-38.88,19.99-69.11,39.9-90.71,20.1-22.68,44.2-34.02,72.27-34.02h0Z"/>
    </g>
  </g>
</svg>